<svg width="227" height="199" xmlns="http://www.w3.org/2000/svg" xml:space="preserve" version="1.1">
 <defs>
  <linearGradient y2="0.99999" x2="0.50001" y1="-0.00001" x1="0.50001" id="SVGID_1_">
   <stop stop-color="#F4F2FB" offset="0"/>
   <stop stop-color="#E1EEF5" offset="1"/>
  </linearGradient>
  <linearGradient y2="-0.00003" x2="0.49988" y1="1.00003" x1="0.49988" id="SVGID_2_">
   <stop stop-color="#B7ACE0" offset="0.2267"/>
   <stop stop-color="#E8E7FA" offset="0.7893"/>
  </linearGradient>
  <linearGradient y2="0.99999" x2="0.50245" y1="-0.00003" x1="0.50245" id="SVGID_3_">
   <stop stop-color="#ECF1FB" offset="0"/>
   <stop stop-color="#AFB0E7" offset="0.818"/>
  </linearGradient>
  <linearGradient y2="-0.00003" x2="0.49968" y1="0.99993" x1="0.49968" id="SVGID_4_">
   <stop stop-color="#CCD4F4" offset="0.2267"/>
   <stop stop-color="#ECF1FB" offset="0.7893"/>
  </linearGradient>
  <linearGradient y2="1.00001" x2="0.50231" y1="-0.00011" x1="0.50231" id="SVGID_5_">
   <stop stop-color="#ECF1FB" offset="0"/>
   <stop stop-color="#A6A8E2" offset="1"/>
  </linearGradient>
  <linearGradient y2="0.93303" x2="0.25001" y1="0.0669" x1="0.75007" id="SVGID_6_">
   <stop stop-color="#FFDB80" offset="0"/>
   <stop stop-color="#FFBB24" offset="1"/>
  </linearGradient>
  <linearGradient y2="0.99982" x2="0.50006" y1="-0.00008" x1="0.50006" id="SVGID_7_">
   <stop stop-color="#F9FAFE" offset="0"/>
   <stop stop-color="#E5EDF7" offset="1"/>
  </linearGradient>
  <linearGradient y2="-0.00008" x2="0.50015" y1="1.00022" x1="0.50015" id="SVGID_8_">
   <stop stop-color="#AFB0E7" offset="0.2267"/>
   <stop stop-color="#ECF1FB" offset="1"/>
  </linearGradient>
  <linearGradient y2="0.99994" x2="0.50386" y1="0.00004" x1="0.50386" id="SVGID_9_">
   <stop stop-color="#DDE1F6" offset="0"/>
   <stop stop-color="#A6A8E2" offset="0.818"/>
  </linearGradient>
  <linearGradient y2="-0.00002" x2="0.49998" y1="1.00002" x1="0.49998" id="SVGID_10_">
   <stop stop-color="#B0B9E1" offset="0.3396"/>
   <stop stop-color="#EAF0F8" offset="0.8657"/>
  </linearGradient>
  <linearGradient y2="0.95617" x2="1.11789" y1="0.10565" x1="0.279" id="SVGID_11_">
   <stop stop-color="#C8CBF2" offset="0"/>
   <stop stop-color="#AFB0E7" offset="1"/>
  </linearGradient>
  <linearGradient y2="0.92583" x2="0.88221" y1="0.18681" x1="0.22331" id="SVGID_12_">
   <stop stop-color="#C8CBF2" offset="0"/>
   <stop stop-color="#AFB0E7" offset="1"/>
  </linearGradient>
  <linearGradient y2="0.95338" x2="1.12891" y1="0.10652" x1="0.27341" id="SVGID_13_">
   <stop stop-color="#DEE4FF" offset="0.1157"/>
   <stop stop-color="#BACBEE" offset="0.8472"/>
  </linearGradient>
  <linearGradient y2="0.91422" x2="0.69689" y1="0.02685" x1="-0.05309" id="SVGID_14_">
   <stop stop-color="#C8CBF2" offset="0"/>
   <stop stop-color="#AFB0E7" offset="1"/>
  </linearGradient>
  <linearGradient y2="0.90848" x2="0.73106" y1="0.03482" x1="-0.07428" id="SVGID_15_">
   <stop stop-color="#DEE4FF" offset="0.1157"/>
   <stop stop-color="#BACBEE" offset="0.8472"/>
  </linearGradient>
  <linearGradient y2="0.92654" x2="0.89046" y1="0.16014" x1="0.22307" id="SVGID_16_">
   <stop stop-color="#DEE4FF" offset="0.1157"/>
   <stop stop-color="#BACBEE" offset="0.8472"/>
  </linearGradient>
  <linearGradient y2="-0.0002" x2="0.50082" y1="1.00013" x1="0.50082" id="SVGID_17_">
   <stop stop-color="#FFDB80" offset="0"/>
   <stop stop-color="#FFBB24" offset="1"/>
  </linearGradient>
  <linearGradient y2="-0.00005" x2="0.50009" y1="0.99996" x1="0.50009" id="SVGID_18_">
   <stop stop-color="#18264B" offset="0"/>
   <stop stop-color="#2D3C65" offset="0.652"/>
  </linearGradient>
  <linearGradient y2="0.00002" x2="0.50059" y1="0.99966" x1="0.50059" id="SVGID_19_">
   <stop stop-color="#FFDB80" offset="0"/>
   <stop stop-color="#FFBB24" offset="1"/>
  </linearGradient>
  <linearGradient y2="-0.00005" x2="0.49994" y1="0.99994" x1="0.49994" id="SVGID_20_">
   <stop stop-color="#18264B" offset="0"/>
   <stop stop-color="#2D3C65" offset="0.652"/>
  </linearGradient>
  <linearGradient y2="0.00007" x2="0.49995" y1="1.00006" x1="0.49995" id="SVGID_21_">
   <stop stop-color="#C3D5FD" offset="0"/>
   <stop stop-color="#1A90FC" offset="1"/>
  </linearGradient>
  <linearGradient y2="1.00031" x2="0.49982" y1="0.00038" x1="0.49982" id="SVGID_22_">
   <stop stop-color="#F4AE98" offset="0"/>
   <stop stop-color="#FAD1BB" offset="1"/>
  </linearGradient>
  <linearGradient y2="0.49993" x2="-0.00004" y1="0.49993" x1="1.00011" id="SVGID_23_">
   <stop stop-color="#F4B9A4" offset="0"/>
   <stop stop-color="#FAD1BB" offset="0.652"/>
  </linearGradient>
  <linearGradient y2="0.50001" x2="1.0006" y1="0.50001" x1="0.00013" id="SVGID_24_">
   <stop stop-color="#4F5C7C" offset="0"/>
   <stop stop-color="#274168" offset="1"/>
  </linearGradient>
  <linearGradient y2="1.00026" x2="0.50078" y1="0.00041" x1="0.50078" id="SVGID_25_">
   <stop stop-color="#F4B9A4" offset="0"/>
   <stop stop-color="#FAD1BB" offset="0.652"/>
  </linearGradient>
  <linearGradient y2="0.00005" x2="0.49981" y1="1.00012" x1="0.49981" id="SVGID_26_">
   <stop stop-color="#C3D5FD" offset="0"/>
   <stop stop-color="#1A90FC" offset="1"/>
  </linearGradient>
  <linearGradient y2="1.00026" x2="0.49945" y1="0.00015" x1="0.49945" id="SVGID_27_">
   <stop stop-color="#F4B9A4" offset="0"/>
   <stop stop-color="#FAD1BB" offset="0.652"/>
  </linearGradient>
  <linearGradient y2="0.00002" x2="0.50018" y1="0.99999" x1="0.50018" id="SVGID_28_">
   <stop stop-color="#C3D5FD" offset="0"/>
   <stop stop-color="#1A90FC" offset="1"/>
  </linearGradient>
  <linearGradient y2="0.89221" x2="1.34147" y1="0.10776" x1="-0.3414" id="SVGID_29_">
   <stop stop-color="#C8CBF2" offset="0"/>
   <stop stop-color="#AFB0E7" offset="1"/>
  </linearGradient>
 </defs>
 <g>
  <title>Layer 1</title>
  <g id="图层_2"/>
  <g id="图层_3"/>
  <g id="图层_4"/>
  <g id="图层_5"/>
  <g id="图层_6"/>
  <g id="图层_7"/>
  <g id="图层_8"/>
  <g id="图层_9"/>
  <g stroke="null" id="图层_10">
   <g stroke="null" id="svg_1">
    <g stroke="null" id="svg_2">
     <path stroke="null" id="svg_3" fill="url(#SVGID_1_)" d="m139.39775,38.73696c-11.62287,9.31345 -36.57402,10.39576 -54.87921,-0.6826s-52.10147,-9.6486 -61.25558,10.72169s11.26543,40.38082 3.87126,55.03206s-32.03635,35.37512 -15.13972,60.39136s38.34911,18.6392 51.25937,16.12712c25.4964,-4.95959 57.49034,35.56575 93.4858,4.95959c20.74063,-17.63375 51.62893,12.94167 63.66376,-25.01625c9.92957,-31.31951 -25.95078,-42.8929 -15.13669,-63.96423c11.49867,-22.40885 9.29042,-48.96248 -3.1685,-61.82113c-11.60167,-11.97927 -42.63536,-11.82553 -62.70049,4.25239z" class="st0"/>
     <g stroke="null" id="svg_4">
      <path stroke="null" id="svg_5" fill="url(#SVGID_2_)" d="m28.1096,100.88094c0,0 -0.06664,-0.17526 -0.15752,0.0123c-0.81787,1.68804 -8.22416,19.97364 -8.81181,34.08679c0,0 -1.2359,8.10814 9.12079,8.00053c8.64521,-0.08917 8.41499,-7.56391 8.3847,-10.08214c-0.11814,-10.21435 -8.53616,-32.01748 -8.53616,-32.01748z" class="st1"/>
      <g stroke="null" id="svg_6">
       <path stroke="null" id="svg_7" fill="url(#SVGID_3_)" d="m27.8703,151.95885c-0.1666,0 -0.30292,-0.13836 -0.30292,-0.30748l0,-45.8539c0,-0.16911 0.13631,-0.30748 0.30292,-0.30748s0.30292,0.13836 0.30292,0.30748l0,45.8539c0,0.16911 -0.13328,0.30748 -0.30292,0.30748z" class="st2"/>
      </g>
     </g>
     <g stroke="null" id="svg_8">
      <path stroke="null" id="svg_9" fill="url(#SVGID_4_)" d="m179.82485,87.73326c0,0 -0.04241,-0.11377 -0.09996,0.00922c-0.52707,1.08539 -5.29496,12.86172 -5.67361,21.94764c0,0 -0.79667,5.22094 5.87353,5.1533c5.56759,-0.05535 5.41916,-4.87042 5.39796,-6.49082c-0.07876,-6.57999 -5.49792,-20.61934 -5.49792,-20.61934z" class="st3"/>
      <g stroke="null" id="svg_10">
       <path stroke="null" id="svg_11" fill="url(#SVGID_5_)" d="m179.67037,120.6209c-0.10905,0 -0.19387,-0.08917 -0.19387,-0.19678l0,-29.52385c0,-0.11069 0.08785,-0.19678 0.19387,-0.19678c0.10905,0 0.19387,0.08917 0.19387,0.19678l0,29.52385c0.00303,0.10762 -0.08482,0.19678 -0.19387,0.19678z" class="st4"/>
      </g>
     </g>
     <circle stroke="null" id="svg_12" fill="url(#SVGID_6_)" r="10.52632" cy="12.60457" cx="127.73247" class="st5"/>
     <path stroke="null" id="svg_13" fill="url(#SVGID_7_)" d="m133.72414,18.43125l-10.47179,0c-0.6755,-3.26232 -3.52897,-5.7129 -6.94585,-5.7129c-3.41689,0 -6.26732,2.45058 -6.94585,5.7129l-2.74139,0c-3.25028,0 -5.88868,2.67504 -5.88868,5.97733l0,0c0,3.29922 2.63537,5.97733 5.88868,5.97733l27.10185,0c3.25028,0 5.88868,-2.67504 5.88868,-5.97733l0,0c0.00303,-3.30229 -2.63537,-5.97733 -5.88565,-5.97733z" class="st6"/>
     <g stroke="null" id="svg_14">
      <circle stroke="null" id="svg_15" fill="url(#SVGID_8_)" r="4.21355" cy="138.00252" cx="201.05621" class="st7"/>
      <path stroke="null" id="svg_16" fill="url(#SVGID_9_)" d="m201.07135,148.57969c-0.0727,0 -0.13025,-0.05842 -0.13025,-0.13221l0,-13.5105c0,-0.07379 0.05755,-0.13221 0.13025,-0.13221s0.13025,0.05842 0.13025,0.13221l0,13.5105c0,0.07379 -0.05755,0.13221 -0.13025,0.13221z" class="st8"/>
     </g>
    </g>
    <polygon stroke="null" id="svg_17" fill="url(#SVGID_10_)" points="82.93125915527344,163.2585906982422 110.86915588378906,128.2247772216797 140.7760009765625,128.2247772216797 97.22280883789062,168.9684295654297 " class="st9"/>
    <g stroke="null" id="svg_18">
     <path stroke="null" id="svg_19" fill="url(#SVGID_11_)" d="m71.99601,85.59323c-7.67588,0.44584 -13.32525,4.2278 -17.07838,10.85698c-2.44756,4.32311 -2.54449,9.03365 -2.29004,13.78107c0.53919,10.10981 9.02991,18.51621 19.24422,18.94975c4.2287,0.17834 0.97539,0.0615 5.21015,0.07072c0.22719,0 0.45134,-0.09224 0.71791,-0.14759c0,-14.50672 0,-28.94579 0,-43.49556c-0.32109,-0.04305 -0.51799,-0.09224 -0.71488,-0.09224c-4.19841,0.00922 -0.90875,-0.16604 -5.08898,0.07687z" class="st10"/>
     <path stroke="null" id="svg_20" fill="url(#SVGID_12_)" d="m154.04977,51.07905c-0.54828,-1.10691 -1.26619,-2.17386 -3.2412,-2.1923c-1.92351,-0.01845 -2.85044,1.16841 -3.38962,2.32452c-7.82128,16.78512 -20.47103,29.5177 -36.18932,29.66529c-4.62855,0.04305 -24.82999,0.01845 -27.45929,0.02152c-2.53843,0.00307 -3.38357,0.86093 -3.38357,3.43451c-0.00303,12.46508 0,24.93015 0,37.39831c0,2.54898 -0.01212,5.09795 0.00909,7.64693c0.00909,1.28217 0.71488,2.39216 1.85081,2.5828c0.35138,0.05842 0.58766,0.15989 0.74214,0.3044l0,30.67688c0,4.70131 3.75615,8.51401 8.38773,8.51401c4.63158,0 8.38773,-3.8127 8.38773,-8.51401l0,-30.68303c0.2181,-0.13529 0.51799,-0.16911 0.89663,-0.16604c3.80462,0.03382 7.6153,-0.07072 11.41992,0.03382c13.86444,0.3782 25.05414,6.18334 33.36918,17.43082c2.0053,2.71194 0.56039,6.91514 2.19311,9.90073c0.54525,0.99315 2.73836,1.18378 3.84097,1.09769c1.53275,-0.11992 2.88073,-1.03312 3.62287,-1.94632c0.47558,-0.5842 0.90572,-1.46051 1.03597,-2.18308c0.6028,-3.31767 0.79667,-6.93051 1.00568,-10.17746c0.99659,-15.52446 1.33283,-28.38619 1.41462,-43.51708c0.08785,-16.43459 -0.22719,-31.63928 -1.97198,-42.85601c-0.25748,-1.70342 -1.65695,-7.00738 -2.54146,-8.79689z" class="st12"/>
     <path stroke="null" id="svg_21" fill="url(#SVGID_13_)" d="m69.95133,88.23445c-7.03976,0.42124 -12.21961,3.96952 -15.66073,10.1959c-2.2446,4.05868 -2.33245,8.48019 -2.0992,12.93859c0.49375,9.49178 8.27868,17.38469 17.64483,17.79364c3.87732,0.16911 0.8936,0.05842 4.77698,0.06764c0.20901,0 0.41499,-0.08609 0.65733,-0.13836c0,-13.61811 0,-27.17473 0,-40.83896c-0.29383,-0.03997 -0.47558,-0.08609 -0.65733,-0.08609c-3.844,0.00307 -0.82696,-0.16296 -4.66187,0.06764z" class="st13"/>
     <path stroke="null" id="svg_22" fill="url(#SVGID_14_)" d="m174.67226,98.40268c-3.70466,-4.4953 -8.96327,-5.33471 -14.69746,-4.77203c0,8.6493 0,17.19406 0,25.81261c7.0337,0.59343 13.22226,-0.39972 16.25142,-7.0166c2.32639,-5.08873 1.44491,-10.38654 -1.55396,-14.02398z" class="st15"/>
     <path stroke="null" id="svg_23" fill="url(#SVGID_15_)" d="m171.39472,101.4221c-2.88679,-3.71124 -7.09125,-3.97566 -11.48656,-3.5083c0,7.22876 0,14.37143 0,21.56944c5.3919,0.49504 10.72927,-0.43047 12.45286,-5.86357c1.23892,-3.91109 1.83567,-8.59088 -0.9663,-12.19757z" class="st16"/>
     <path stroke="null" id="svg_24" fill="url(#SVGID_16_)" d="m152.00812,59.46084c-0.32412,-1.13151 -1.20863,-1.79873 -2.46573,-1.76799c-1.2359,0.03075 -1.9326,0.72257 -2.44453,1.82333c-7.44566,15.97645 -19.86217,24.30598 -37.29193,24.80102c-4.40439,0.12299 -23.63347,0.01537 -26.13858,0.01845c-2.41424,0.00307 -3.21999,0.81789 -3.21999,3.26847c-0.00303,11.8655 0,23.731 0,35.5965c0,2.42599 -0.01212,4.85197 0.00909,7.27796c0.00909,1.22068 0.68156,2.2784 1.76297,2.45981c0.33624,0.05535 0.55736,0.15374 0.70882,0.2921l0,29.201c0,4.47685 3.5744,8.10507 7.98485,8.10507c4.41045,0 7.98485,-3.62822 7.98485,-8.10507l0,-29.20715c0.20598,-0.12914 0.49375,-0.15989 0.85422,-0.15681c3.62287,0.03075 7.24877,-0.06764 10.86861,0.03075c13.19803,0.35975 23.84854,5.88817 31.76372,16.59141c1.90837,2.57972 3.26846,5.58376 4.82242,8.42484c0.51799,0.94703 1.19955,1.56813 2.25066,1.62962c1.10564,0.0615 1.96895,-0.46121 2.4415,-1.48203c0.29686,-0.64262 0.59069,-1.33445 0.66641,-2.03242c0.33624,-3.08398 0.77849,-6.17412 0.84513,-9.2704c0.31503,-14.3991 0.6543,-28.80128 0.727,-43.20653c0.06361,-13.15075 -0.08785,-26.30765 -1.14502,-39.43072c-0.13025,-1.63577 -0.52707,-3.27462 -0.98448,-4.8612z" class="st17"/>
    </g>
    <g stroke="null" id="svg_25">
     <path stroke="null" id="svg_26" fill="url(#SVGID_17_)" d="m98.20123,102.55976c0,0 -0.28474,-1.00237 -1.28436,-0.86093c-0.99962,0.14144 -1.31162,1.01775 -1.55093,0.95625c-0.2393,-0.0615 -0.24233,-0.70412 -0.3635,-0.39049c-0.11814,0.31363 -0.19387,0.98085 -0.19387,0.98085s-0.04241,0.56268 0.03635,1.37134c0.07876,0.81174 0.00303,1.9371 0.60583,2.27225c1.35403,0.75639 2.04165,0.55346 2.84741,0.27058c0.83908,-0.29825 0.75729,-1.74339 0.65127,-2.18c-0.08179,-0.34437 -0.7482,-2.41984 -0.7482,-2.41984z" class="st18"/>
     <path stroke="null" id="svg_27" fill="#FFFFFF" d="m94.82675,104.41691c0,0 -0.1454,2.79496 2.55964,2.79496c0.9663,0 1.82052,-0.74409 1.41764,-2.77958c0.4574,1.48818 0.76335,3.16085 -1.39947,3.44066c-2.078,0.26443 -2.84135,-1.83871 -2.57781,-3.45603z" class="st26"/>
     <path stroke="null" id="svg_28" fill="url(#SVGID_18_)" d="m93.81501,76.13219c-0.28474,0 -0.94813,1.55583 -1.28739,4.27699c-1.83567,2.36142 -10.17796,6.52157 -8.76032,9.83616c1.42067,3.31459 10.9716,12.40666 10.9716,12.40666l3.61984,-0.21523c0,0 -5.67361,-9.75929 -7.24271,-12.32671c3.96819,-1.89098 8.80273,-5.38698 9.44188,-5.7498s1.13593,-8.15734 1.13593,-8.15734l-7.87883,-0.07072z" class="st19"/>
     <path stroke="null" id="svg_29" fill="url(#SVGID_19_)" d="m102.48749,102.51056c0,0 0.27262,-1.00852 1.23892,-0.86708c0.9663,0.14144 1.26619,1.0239 1.4964,0.9624s0.23627,-0.71027 0.35138,-0.39357c0.11511,0.3167 0.18781,0.987 0.18781,0.987s0.03938,0.56576 -0.03635,1.38057c-0.07573,0.81481 -0.00303,1.94632 -0.58766,2.28762c-1.3086,0.76254 -1.97198,0.55653 -2.74744,0.27058c-0.80878,-0.29825 -0.73306,-1.75261 -0.63006,-2.1923c0.08482,-0.34745 0.727,-2.43521 0.727,-2.43521z" class="st20"/>
     <path stroke="null" id="svg_30" fill="#FFFFFF" d="m105.74686,104.37694c0,0 0.13934,2.81033 -2.47179,2.81033c-0.93298,0 -1.75691,-0.74717 -1.36918,-2.79496c-0.44226,1.49433 -0.73911,3.1793 1.351,3.45911c2.00833,0.27058 2.74744,-1.84793 2.48997,-3.47448z" class="st26"/>
     <path stroke="null" id="svg_31" fill="url(#SVGID_20_)" d="m106.84947,76.13219c0.28474,0 0.94813,1.55583 1.28739,4.27699c1.83567,2.36142 10.17796,6.52157 8.76032,9.83616c-1.42067,3.31459 -11.0655,12.43126 -11.0655,12.43126l-3.61984,-0.21523c0,0 5.76751,-9.78389 7.33661,-12.35131c-3.96819,-1.89098 -8.80273,-5.38698 -9.44188,-5.7498s-1.13593,-8.15734 -1.13593,-8.15734l7.87883,-0.07072z" class="st21"/>
     <path stroke="null" id="svg_32" fill="url(#SVGID_21_)" d="m98.11339,57.02871c0,0 -4.54979,-0.12607 -6.05528,2.03242c-1.50549,2.15848 -2.13555,7.16727 -2.13555,7.16727l3.48656,-0.18756l-1.17228,14.4606l16.02726,-0.10762l-0.94813,-14.91874l3.1685,-0.53193c0,0 0.84211,-6.64456 -4.38925,-7.88676c-1.79629,-0.23061 -3.54411,-0.11069 -3.66225,-0.03997c0,0 -0.43923,2.43214 -2.32639,2.2784s-1.99318,-2.2661 -1.99318,-2.2661z" class="st22"/>
     <path stroke="null" id="svg_33" fill="url(#SVGID_22_)" d="m98.65863,54.24913l-0.90269,4.08328c-0.04241,0.19064 0.05755,0.38742 0.23627,0.46121c0.46649,0.19371 1.39947,0.51963 2.35971,0.51963c0.99659,0 1.93563,-0.55346 2.36577,-0.84863c0.14843,-0.10147 0.21204,-0.2921 0.15449,-0.46429l-1.37827,-4.1663c-0.06361,-0.19064 -0.25142,-0.3044 -0.44529,-0.2675l-2.06588,0.37205c-0.16357,0.03075 -0.2908,0.15066 -0.32412,0.31055z" class="st23"/>
     <path stroke="null" id="svg_34" fill="url(#SVGID_23_)" d="m103.86878,52.61643c0.13328,-0.19371 0.2181,-0.69182 0.10905,-0.83941c-0.1969,-0.16296 -0.38773,-0.06764 -0.5301,0.07379c0.03332,-1.18993 -0.0727,-2.18 -0.09996,-2.42906c-0.0727,-0.72872 -0.80576,-2.06624 -3.19273,-2.06624c-2.39,0 -2.85044,1.74954 -2.85044,1.74954s-0.15752,1.23913 -0.10905,2.73961c-0.14237,-0.13836 -0.32715,-0.22753 -0.52404,-0.06764c-0.10905,0.14451 -0.02423,0.64262 0.10905,0.83941c0.13328,0.19371 0.2181,0.65492 0.24233,0.91013c0.02423,0.24291 -0.14843,0.88861 0.47861,0.80866c0.37562,1.52508 1.89322,2.79496 2.83832,2.79496c1.03294,0 2.40212,-1.28217 2.79288,-2.79803c0.64218,0.08917 0.46649,-0.56268 0.49072,-0.80559c0.02726,-0.25521 0.11208,-0.71642 0.24536,-0.91013z" class="st24"/>
     <path stroke="null" id="svg_35" fill="url(#SVGID_24_)" d="m101.87863,46.83588c0,0 -0.46649,-1.49126 -2.25369,-1.13459c-1.7872,0.35667 -1.90837,1.21453 -2.61113,1.24835c-1.19652,0.05535 -2.15373,1.5712 -0.61795,3.17623c0.68459,0.71334 0.10602,1.02082 0.43014,1.65115s0.32109,1.24835 0.32109,1.24835s0.57251,-1.85101 0.19387,-2.64122c-0.19387,-0.40587 0.66641,-0.51963 1.73874,-0.42124s2.76259,-0.26443 2.89587,-1.00545c0.31806,1.51893 0.63309,1.67574 1.03597,1.90635c0.40288,0.23061 0.42711,2.06624 0.42711,2.06624s0.0727,-1.34982 0.35138,-1.65115c0.23022,-0.49811 0.68459,-2.45366 0.17266,-2.92717c-0.50587,-0.47351 -0.07573,-1.99859 -2.08406,-1.51586z" class="st25"/>
     <path stroke="null" id="svg_36" fill="url(#SVGID_25_)" d="m85.8756,80.46761c0,0 0.03938,0.95318 -0.3847,1.41439c-0.42711,0.46121 -1.2783,1.44514 -1.1329,2.04164s0.47558,1.22068 0.66944,1.16226c0.19387,-0.05842 0.16055,-0.28903 0.20295,-0.22753c0.04544,0.05842 0.30292,0.329 0.41802,0.09839c0.11511,-0.22753 0.11511,0.50734 0.57554,-0.15989c0.20295,0.27365 0.46952,0.22753 0.56039,-0.18756c0.08785,-0.41817 0.20295,-0.9747 0.21204,-1.03312c0.03029,0.28903 -0.12117,1.0239 0.2393,0.92858c0.14843,-0.03997 0.51496,-0.70105 0.58463,-1.55583c0.06967,-0.85478 -0.24839,-1.0239 0.00909,-2.04779s-1.95381,-0.43354 -1.95381,-0.43354z" class="st27"/>
     <path stroke="null" id="svg_37" fill="url(#SVGID_26_)" d="m92.982,58.20634c0,0 2.02651,4.51067 0.42711,7.83449c-1.59939,3.32689 -3.49867,7.73917 -3.65619,8.78459c-0.15146,0.99622 -1.61454,6.66915 -1.61454,6.66915l-2.805,0.0369c0,0 0.53313,-6.07573 1.56304,-9.86076s3.33207,-12.55425 6.08557,-13.46437z" class="st28"/>
     <path stroke="null" id="svg_38" fill="url(#SVGID_27_)" d="m115.13724,80.46761c0,0 -0.03938,0.95318 0.3847,1.41439c0.42711,0.46121 1.2783,1.44514 1.1329,2.04164s-0.47558,1.22068 -0.66944,1.16226c-0.19387,-0.05842 -0.16055,-0.28903 -0.20295,-0.22753c-0.04544,0.05842 -0.30292,0.329 -0.41802,0.09839c-0.11511,-0.22753 -0.11511,0.50734 -0.57554,-0.15989c-0.20295,0.27365 -0.46952,0.22753 -0.56039,-0.18756c-0.08785,-0.41817 -0.20295,-0.9747 -0.21204,-1.03312c-0.03029,0.28903 0.12117,1.0239 -0.2393,0.92858c-0.14843,-0.03997 -0.51496,-0.70105 -0.58463,-1.55583c-0.06967,-0.85478 0.24839,-1.0239 -0.00909,-2.04779c-0.26051,-1.02082 1.95381,-0.43354 1.95381,-0.43354z" class="st29"/>
     <path stroke="null" id="svg_39" fill="url(#SVGID_28_)" d="m108.20956,58.04338c0,0 -2.2022,4.67364 -0.60583,8.00053c1.59939,3.32689 3.49867,7.73917 3.65619,8.78459c0.15146,0.99622 1.61454,6.66915 1.61454,6.66915l2.805,0.0369c0,0 -0.53313,-6.07573 -1.56304,-9.86076c-1.02688,-3.78195 -3.32298,-12.41281 -5.90685,-13.63041z" class="st30"/>
    </g>
    <path stroke="null" id="svg_40" fill="url(#SVGID_29_)" d="m141.2425,128.75364c-3.13821,0 -5.68572,-2.30607 -5.68572,-5.1533l0,-32.58323c0,-2.84723 2.54449,-5.1533 5.68572,-5.1533s5.68572,2.30607 5.68572,5.1533l0,32.58323c0,2.84723 -2.54449,5.1533 -5.68572,5.1533z" class="st31"/>
    <path stroke="null" id="svg_41" fill="#FFFFFF" d="m140.37313,128.44616c-2.67777,0 -4.84665,-2.20153 -4.84665,-4.91962l0,-31.1012c0,-2.71809 2.16888,-4.91962 4.84665,-4.91962s4.84665,2.20153 4.84665,4.91962l0,31.1012c0,2.71809 -2.16888,4.91962 -4.84665,4.91962z" class="st26"/>
   </g>
  </g>
  <g id="图层_11"/>
  <g id="图层_12"/>
  <g id="图层_13"/>
  <g id="图层_14"/>
  <g id="图层_15"/>
  <g id="图层_16"/>
 </g>
</svg>